<?xml version="1.0" standalone="no"?>
<!DOCTYPE svg PUBLIC "-//W3C//DTD SVG 20010904//EN"
 "http://www.w3.org/TR/2001/REC-SVG-20010904/DTD/svg10.dtd">
<svg version="1.0" xmlns="http://www.w3.org/2000/svg"
 width="490.000000pt" height="490.000000pt" viewBox="0 0 490.000000 490.000000"
 preserveAspectRatio="xMidYMid meet">
<metadata>
Created by potrace 1.14, written by Peter Selinger 2001-2017
</metadata>
<g transform="translate(0.000000,490.000000) scale(0.100000,-0.100000)"
fill="#000000" stroke="none">
<path d="M2350 4881 c-121 -38 -317 -161 -422 -264 -74 -72 -108 -125 -158
-242 -23 -55 -63 -145 -87 -200 -108 -239 -115 -326 -38 -500 14 -32 25 -58
23 -59 -2 0 -19 -8 -38 -17 -19 -9 -48 -22 -65 -29 -16 -7 -43 -18 -60 -26
-16 -7 -103 -43 -193 -79 -213 -85 -228 -93 -317 -171 -43 -38 -80 -63 -85
-58 -5 5 -30 63 -56 129 -59 151 -83 185 -129 185 -51 0 -82 -16 -100 -50 -14
-28 -14 -40 1 -138 8 -59 17 -120 19 -137 2 -16 6 -43 8 -60 3 -16 9 -50 12
-75 4 -25 9 -53 11 -64 2 -10 6 -42 9 -71 l7 -54 -57 -27 c-63 -31 -80 -51
-120 -141 l-27 -62 -42 32 c-22 18 -43 35 -46 38 -3 4 -21 16 -40 28 -75 45
-194 13 -237 -63 -23 -42 -24 -112 -4 -166 6 -14 39 -142 75 -285 36 -143 70
-274 75 -292 11 -39 22 -34 -141 -64 -101 -19 -133 -80 -88 -169 34 -66 89
-97 202 -114 21 -3 57 -10 80 -15 24 -5 63 -12 88 -16 25 -3 52 -8 61 -11 10
-3 30 -7 45 -9 69 -9 403 -72 436 -81 9 -3 23 -19 32 -37 49 -98 246 -382 358
-516 l46 -55 -22 -35 c-13 -20 -34 -56 -48 -81 -14 -25 -50 -88 -81 -140 -135
-233 -185 -333 -188 -375 -1 -16 1 -50 5 -74 11 -61 83 -133 148 -149 34 -9
367 -12 1251 -12 1074 0 1210 1 1252 16 93 31 145 104 145 204 0 60 -17 103
-72 190 -19 30 -49 80 -66 110 -16 30 -67 120 -111 199 -45 78 -81 145 -81
147 0 2 44 59 98 127 111 137 178 233 268 381 66 109 61 106 174 121 25 3 54
8 65 10 21 5 40 8 140 25 98 16 118 20 170 31 28 5 66 12 85 15 83 13 247 56
270 71 50 33 90 86 90 121 0 71 -31 94 -200 142 -14 3 -25 11 -25 16 -2 34
-22 101 -56 187 -22 55 -39 101 -37 102 2 1 26 14 54 28 103 52 141 102 169
221 24 103 6 182 -58 249 -58 61 -101 80 -262 115 -200 44 -209 46 -217 48 -5
1 -15 2 -24 3 -16 1 -15 16 2 106 8 37 12 70 19 120 10 85 25 208 31 245 14
102 14 125 -5 157 -36 58 -123 53 -155 -10 -8 -18 -29 -66 -47 -107 -56 -135
-72 -170 -81 -170 -4 0 -29 20 -56 45 -70 68 -136 108 -252 154 -58 23 -181
74 -273 113 -191 81 -179 65 -131 178 46 108 42 238 -13 360 -12 25 -35 79
-53 120 -18 41 -38 89 -45 105 -79 183 -105 227 -178 299 -115 114 -283 223
-422 273 -60 22 -151 24 -215 4z"/>
</g>
</svg>
